<svg width="130" height="32" viewBox="0 0 130 32" fill="none" xmlns="http://www.w3.org/2000/svg">
<path d="M7.22576 15.2959L14.224 5.86384C14.7713 5.12617 15.7973 5.5853 15.7973 6.56792V13.8684C15.7973 14.4571 16.1995 14.9343 16.6958 14.9343H20.0997C20.8728 14.9343 21.285 16.0156 20.7743 16.7041L13.776 26.1361C13.2287 26.8738 12.2028 26.4147 12.2028 25.432V18.1316C12.2028 17.5429 11.8005 17.0658 11.3042 17.0658H7.90035C7.12711 17.0658 6.71494 15.9844 7.22576 15.2959Z" stroke="#DDFF00" stroke-width="2" stroke-linecap="round" stroke-linejoin="round"/>
<path d="M37.736 7.24V25H33.848V7.24H37.736ZM44.6818 25H40.9858V13H44.4658L44.7058 14.248C45.4498 13.216 46.8178 12.616 48.3778 12.616C51.2338 12.616 52.8898 14.44 52.8898 17.584V25H49.1938V18.472C49.1938 16.96 48.3538 15.976 47.0818 15.976C45.6178 15.976 44.6818 16.936 44.6818 18.424V25ZM54.8924 18.952C54.8924 15.256 57.4364 12.616 61.0364 12.616C64.5884 12.616 66.9404 14.56 67.1804 17.704H63.4604C63.1964 16.504 62.4524 15.928 61.1804 15.928C59.6204 15.928 58.6124 17.104 58.6124 18.952C58.6124 20.872 59.5484 22 61.1324 22C62.4284 22 63.2204 21.4 63.4604 20.224H67.1804C66.9404 23.248 64.4924 25.312 61.1324 25.312C57.3404 25.312 54.8924 22.792 54.8924 18.952ZM77.4605 13V16.48H76.2845C74.1725 16.48 72.9005 17.416 72.9005 19.792V25H69.2045V13.024H72.6845L72.8765 14.8C73.3805 13.624 74.4365 12.832 76.0445 12.832C76.4765 12.832 76.9565 12.88 77.4605 13ZM84.5459 25.312C80.9219 25.312 78.3299 22.672 78.3299 18.976C78.3299 15.232 80.8499 12.616 84.4739 12.616C88.2419 12.616 90.5939 15.088 90.5939 19V19.936L81.8819 19.984C82.0979 21.568 82.9859 22.312 84.6179 22.312C86.0099 22.312 86.9939 21.808 87.2579 20.944H90.6419C90.2099 23.608 87.8339 25.312 84.5459 25.312ZM84.4979 15.616C83.0339 15.616 82.2179 16.264 81.9299 17.704H86.9219C86.9219 16.432 85.9859 15.616 84.4979 15.616ZM96.2894 25.312C93.7454 25.312 92.1614 23.824 92.1614 21.472C92.1614 19.264 93.7214 17.896 96.6014 17.68L99.9614 17.416V17.224C99.9614 16.048 99.2414 15.424 97.9214 15.424C96.3614 15.424 95.5214 16.024 95.5214 17.104H92.4494C92.4494 14.392 94.6814 12.616 98.1134 12.616C101.593 12.616 103.561 14.56 103.561 17.992V25H100.297L100.057 23.416C99.6734 24.52 98.0894 25.312 96.2894 25.312ZM97.5854 22.576C99.0014 22.576 99.9854 21.88 99.9854 20.512V19.864L98.1134 20.032C96.5054 20.176 95.9294 20.536 95.9294 21.304C95.9294 22.168 96.4574 22.576 97.5854 22.576ZM105.348 21.208H108.852C108.9 22.048 109.524 22.552 110.652 22.552C111.804 22.552 112.332 22.144 112.332 21.52C112.332 21.16 112.14 20.776 111.252 20.584L109.044 20.104C106.836 19.624 105.756 18.664 105.756 16.552C105.756 14.056 107.892 12.616 110.772 12.616C113.556 12.616 115.5 14.248 115.5 16.672H111.996C111.996 15.856 111.492 15.304 110.604 15.304C109.764 15.304 109.236 15.736 109.236 16.384C109.236 16.936 109.692 17.248 110.532 17.44L112.764 17.92C114.732 18.352 115.812 19.264 115.812 21.184C115.812 23.752 113.628 25.312 110.508 25.312C107.34 25.312 105.348 23.632 105.348 21.208ZM116.549 30.76V27.664H118.589C119.837 27.664 120.365 27.28 120.845 25.984L121.061 25.408L116.237 13H120.197L122.813 20.704L125.717 13H129.557L123.461 27.616C122.453 30.064 121.109 31.096 118.997 31.096C118.109 31.096 117.269 30.976 116.549 30.76Z" fill="white"/>
</svg>
